<?xml version="1.0" encoding="UTF-8"?>
<!-- Generator: Adobe Illustrator 25.2.0, SVG Export Plug-In . SVG Version: 6.00 Build 0)  -->
<svg xmlns="http://www.w3.org/2000/svg" xmlns:xlink="http://www.w3.org/1999/xlink" version="1.1" id="Capa_1" x="0px" y="0px" viewBox="0 0 500 500" style="enable-background:new 0 0 500 500;" xml:space="preserve" width="512" height="512">
<g>
	<g>
		<path d="M244.949,410.111c2.977,0.003,3.892,0.539,4.816,2.971c2.24,5.894,4.193,11.909,6.686,17.693    c1.529,3.548,3.793,6.79,5.85,10.092c0.321,0.515,1.285,0.675,1.985,0.891c0.465,0.144,1.004,0.033,1.484,0.146    c1.315,0.311,1.722,0.973,1.149,2.183c-0.855,1.806-1.708,3.648-2.84,5.283c-4.626,6.68-8.895,13.559-12.551,20.829    c-1.848,3.674-4.51,4.829-8.309,3.72c-1.298-0.379-2.63-1.305-3.507-2.35c-3.637-4.335-7.083-8.828-10.644-13.228    c-2.312-2.857-4.957-5.35-8.076-7.351c-3.077-1.973-3.319-3.37-1.191-6.419c4.013-5.75,8.223-11.368,12.08-17.219    c3.054-4.633,5.781-9.49,8.497-14.336C241.525,410.969,243.025,409.965,244.949,410.111z M245.176,467.165    c4.837-7.659,9.638-15.26,14.468-22.909c-4.221-1.91-6.699-5.758-8.571-10.035c-1.927-4.402-3.64-8.897-5.45-13.35    c-0.173-0.426-0.366-0.843-0.606-1.394c-0.243,0.329-0.349,0.439-0.417,0.568c-4.36,8.28-9.75,15.871-15.519,23.21    c-0.804,1.023-1.554,2.09-2.285,3.166c-0.695,1.022-0.491,1.816,0.606,2.487c1.749,1.071,3.539,2.114,5.131,3.395    c4.533,3.649,8.007,8.253,11.326,12.978C244.34,465.967,244.819,466.654,245.176,467.165z"/>
		<path d="M248.833,79.441c-2.427,0.1-4.249-0.862-5.33-3.114c-1.084-2.257-2.218-4.491-3.272-6.761    c-2.428-5.23-4.93-10.413-8.476-15.011c-1.015-1.316-0.702-2.62,0.098-3.905c2.119-3.401,4.375-6.727,6.317-10.226    c2.501-4.507,4.753-9.152,7.105-13.741c1.485-2.896,4.616-4.066,7.564-2.63c0.758,0.369,1.42,1.253,1.788,2.056    c3.222,7.025,6.845,13.825,11.098,20.282c0.602,0.914,1.392,1.715,1.922,2.664c0.267,0.479,0.378,1.278,0.164,1.754    c-1.107,2.459-2.207,4.94-3.561,7.267c-3.273,5.624-6.691,11.164-10.038,16.746c-0.307,0.513-0.602,1.058-0.768,1.627    C252.766,78.784,251.072,79.509,248.833,79.441z M250.818,33.664c-2.797,6.233-6.572,11.708-10.728,16.94    c-0.311,0.391-0.753,0.788-0.826,1.233c-0.107,0.653-0.205,1.591,0.156,1.994c4.207,4.693,7.078,10.179,9.637,15.862    c0.196,0.436,0.422,0.859,0.645,1.31c4.263-6.921,8.468-13.748,12.6-20.455C256.109,46.565,254.399,39.556,250.818,33.664z"/>
		<path d="M482.434,172.317c-1.984,0.046-3.654-0.848-4.846-2.927c-2.089-3.647-4.219-7.287-6.607-10.74    c-1.641-2.372-3.715-4.451-5.658-6.605c-2.051-2.274-2.317-3.458-0.662-6.161c4.288-7.004,8.667-13.953,13.033-20.908    c1.251-1.993,2.55-3.958,3.888-5.894c1.622-2.348,4.539-3.256,7.149-2.067c0.721,0.328,1.398,1.269,1.633,2.065    c1.942,6.57,3.77,13.174,5.645,19.763c0.451,1.584,0.914,3.076,2.835,3.652c1.045,0.313,1.376,1.451,1.016,2.529    c-0.331,0.991-0.78,1.949-1.247,2.886c-3.084,6.176-6.188,12.341-9.283,18.511c-0.471,0.94-0.905,1.899-1.399,2.827    C486.657,171.639,485.478,172.326,482.434,172.317z M486.136,125.991c-4.553,7.115-9.103,14.23-13.658,21.342    c-0.831,1.298-0.66,2.397,0.472,3.463c4.012,3.778,7.181,8.188,9.688,13.086c0.077,0.15,0.231,0.261,0.184,0.209    c3.469-6.608,6.943-13.224,10.391-19.791C489.401,138.87,488.929,131.902,486.136,125.991z"/>
		<g>
			<path d="M91.579,451.866c-1.07-0.224-2.174-0.346-3.202-0.694c-1.738-0.587-2.145-1.451-1.355-3.107     c1.358-2.844,2.781-5.662,4.299-8.425c5.306-9.652,10.56-19.334,16.036-28.889c4.255-7.426,9.793-13.905,15.79-19.983     c1.959-1.986,4.219-3.392,7.224-2.898c1.878,0.309,2.64,1,2.862,2.88c0.326,2.766-0.387,5.38-1.4,7.899     c-2.523,6.278-6.303,11.789-10.303,17.215c-7.16,9.713-14.084,19.598-21.12,29.402c-0.904,1.26-1.936,2.431-2.819,3.705     C96.124,451.086,94.067,451.816,91.579,451.866z"/>
			<path d="M97.493,301.124c1.278,0.518,1.524,1.659,0.583,2.667c-0.982,1.051-2.082,2.053-3.292,2.821     c-11.327,7.191-23.461,12.488-36.487,15.828c-9.696,2.486-19.349,5.174-28.907,8.139c-3.07,0.952-5.931,1.675-9.05,0.841     c-1.497-0.4-3.322-0.726-3.554-2.529c-0.233-1.804,1.539-2.516,2.85-3.081c6.436-2.771,12.991-5.271,19.389-8.124     c14.676-6.545,29.858-11.579,45.395-15.591c2.421-0.625,4.886-1.081,7.339-1.575c0.632-0.127,1.296-0.099,1.945-0.142     C93.723,300.311,96.314,300.646,97.493,301.124z"/>
			<path d="M178.62,426.591c0.069,8.412-1.387,16.662-2.645,24.919c-0.987,6.477-2.268,12.908-3.419,19.359     c-0.027,0.148-0.059,0.295-0.098,0.44c-1.213,4.624-5.518,6.519-9.868,4.369c-1.093-0.54-1.504-1.4-1.445-2.558     c0.226-4.398,0.334-8.807,0.704-13.193c0.68-8.079,1.453-16.152,2.303-24.215c0.738-7.001,2.448-13.789,4.992-20.355     c0.898-2.317,2.482-3.078,5.348-2.72c2.255,0.281,3.168,1.256,3.513,3.765c0.089,0.644,0.191,1.29,0.225,1.938     C178.374,421.09,178.493,423.841,178.62,426.591z"/>
			<path d="M49.025,390.646c-1.059-0.301-2.502-0.546-3.796-1.126c-1.239-0.555-1.277-1.446-0.26-2.353     c0.745-0.665,1.564-1.254,2.39-1.818c14.564-9.94,29.095-19.929,43.725-29.771c5.109-3.437,10.398-6.678,16.408-8.345     c2.091-0.58,4.335-0.631,6.518-0.838c0.625-0.059,1.295,0.124,1.916,0.298c2.448,0.683,2.662,1.593,0.966,3.484     c-4.706,5.246-10.364,9.317-16.361,12.872c-13.615,8.072-27.314,16.001-41.03,23.9c-2.238,1.289-4.711,2.19-7.127,3.139     C51.467,390.444,50.415,390.429,49.025,390.646z"/>
			<path d="M89.073,263.499c0.686,0.087,1.297,0.774,1.942,1.188c-0.447,0.605-0.771,1.398-1.361,1.783     c-3.514,2.294-7.55,3.184-11.586,3.935c-11.831,2.201-23.756,3.636-35.788,4.104c-11.11,0.432-22.222,0.807-33.327,1.336     c-2.368,0.113-4.721,0.5-6.916-0.588c-0.811-0.402-1.816-1.155-1.995-1.921c-0.29-1.245,1.022-1.807,1.994-2.037     c2.964-0.702,5.948-1.39,8.963-1.788c10.822-1.429,21.639-2.941,32.498-4.023c8.114-0.808,16.287-1.03,24.437-1.458     c5.1-0.268,10.206-0.434,15.309-0.646C83.246,263.312,87.149,263.255,89.073,263.499z"/>
		</g>
		<path d="M386.398,394.548c0.688,0.115,1.389,0.183,2.062,0.357c1.113,0.287,1.619,0.958,1.885,2.185    c1.09,5.025,2.205,10.057,3.648,14.988c0.647,2.21,2.011,4.233,3.212,6.245c0.437,0.733,1.274,1.314,2.052,1.736    c1.061,0.576,1.023,1.305,0.501,2.104c-1.067,1.633-2.124,3.286-3.345,4.801c-3.299,4.093-6.65,8.123-9.218,12.762    c-1.531,2.764-6.6,2.73-8.4,0.055c-1.115-1.657-1.991-3.472-3.025-5.186c-1.163-1.927-2.304-3.873-3.596-5.712    c-1.484-2.11-3.343-3.814-5.75-4.919c-2.051-0.942-2.221-1.965-0.789-3.745c5.093-6.334,9.797-12.925,13.553-20.159    c0.482-0.928,1.107-1.785,1.697-2.655C382.199,395.465,384.059,394.574,386.398,394.548z M394.494,421.478    c-5.569-4.231-7.126-10.686-8.767-17.517c-4.008,7.044-9.094,12.603-14.671,18.015c6.185,2.709,9.332,7.91,12.476,13.098    C387.172,430.56,390.741,426.133,394.494,421.478z"/>
	</g>
	<g>
		<path d="M441.561,361.488c-3.793-2.619-8.196-4.583-14.281-6.37c-9.789-2.867-20.062-4.097-35.459-4.24h-0.047    c-0.685,0.042-1.533,0.078-2.494,0.119c-2.517,0.108-5.967,0.254-9.35,0.583c-14.831,1.436-30.28,4.911-47.232,10.626    c-13.06,4.403-25.736,10.223-37.997,15.853l-3.992,1.829c-5.113,2.342-10.56,4.898-17.142,8.046    c-1.188,0.566-2.34,1.301-3.423,2.182c-0.92,0.751-1.102,1.53-1.094,2.052c0.011,0.514,0.216,1.279,1.141,1.981    c0.914,0.696,2.03,1.279,3.226,1.688c1.439,0.492,2.853,0.69,4.243,0.69c2.511,0,4.931-0.655,7.232-1.422    c7.248-2.425,14.502-4.834,21.755-7.243c12.275-4.08,24.551-8.157,36.804-12.308c15.132-5.124,31.285-10.364,47.759-13.179    c8.173-1.392,18.966-2.776,29.973-1.061c4.729,0.737,9.72,1.68,14.173,4.323c3.552,2.105,5.276,4.95,5.273,8.695    c-0.003,1.671,0.856,2.641,2.552,2.887c2.384,0.345,3.856-0.597,4.411-2.801c0.238-0.947,0.475-2.378,0.251-3.823    C447.284,367.005,445.229,364.027,441.561,361.488z"/>
		<path d="M277.215,355.723c6.234-2.055,11.35-3.947,16.096-5.95c10.461-4.411,18.165-9.516,24.247-16.062    c6.983-7.516,11.049-14.615,12.803-22.336c1.45-6.403,0.652-12.245-2.309-16.899c-2.911-4.571-7.74-7.701-13.966-9.052    c-1.862-0.403-3.787-0.563-5.649-0.718c-0.307-0.025-0.613-0.05-0.923-0.077c0.033-0.022,0.064-0.047,0.097-0.069    c8.049-5.972,16.48-12.659,23.606-21.082c4.193-4.95,6.757-9.433,8.074-14.104c2.464-8.74-1.066-16.75-8.997-20.402    c-6.439-2.964-12.958-3.036-19.374-0.218c-6.654,2.92-12.065,8.063-16.082,15.286c-3.254,5.85-6.356,12.344-9.212,19.3    c-3.364,8.187-5.453,16.899-7.474,25.324c-0.442,1.837-0.881,3.671-1.337,5.505c-1.03,4.177-1.912,8.301-2.829,12.643    c0-0.047,0-0.094,0.003-0.141c0.086-4.591,0.177-9.334,0.483-13.977c0.508-7.709,1.127-15.543,1.724-23.12    c0.436-5.527,0.873-11.057,1.271-16.585c0.257-3.519,0.204-7.019,0.133-9.673c-0.061-2.138-1.113-3.187-3.414-3.406    c-3.085-0.265-5.353,0.892-6.566,3.423c-0.92,1.925-1.942,4.209-2.535,6.555c-4.666,18.355-6.798,37.451-6.34,56.759    c0.216,9.107,0.945,18.341,1.649,27.272c0.191,2.417,0.381,4.831,0.564,7.245c0.226,3.041,0.837,6.08,1.428,9.019l0.138,0.688    c0.483,2.414,1.978,4.033,4.102,4.444l0.964,0.191c1.934,0.389,3.908,0.784,5.892,0.784    C274.724,356.29,275.972,356.135,277.215,355.723z M301.89,274.085c-3.69,2.92-7.367,5.864-11.041,8.806l-5.778,4.624l0.63-2.539    c3.315-13.574,7.707-24.869,13.425-34.531c4.273-7.212,8.831-12.112,14.342-15.416c0.818-0.489,1.575-0.887,2.318-1.215    c1.157-0.514,2.279-0.773,3.326-0.773c0.754,0,1.472,0.135,2.135,0.403c1.602,0.655,2.887,2.094,3.715,4.168    c1.036,2.588,1.155,5.494,0.362,8.883c-0.914,3.9-2.961,7.616-6.447,11.698C314.459,263.368,309.061,268.417,301.89,274.085z     M292.518,295.97c3.204-2.226,7.011-3.754,11.637-4.674c4.994-0.992,9.353,1.102,11.927,5.743    c2.39,4.306,2.853,9.054,1.459,14.944c-1.939,8.176-6.45,15.272-14.629,23.012c-4.826,4.566-10.613,7.69-15.64,10.146    c-2.696,1.315-5.397,2.541-8.257,3.842c-0.895,0.406-1.798,0.815-2.713,1.235c0.323-3.387,0.625-6.759,0.926-10.121    c1.309-14.629,2.55-28.457,5.439-42.373l0.787,0.041c1.036,0.061,2.025,0.141,3.03,0.111    C288.684,297.866,290.714,297.225,292.518,295.97z"/>
		<path d="M197.215,246.711c-1.508-0.677-3.069-0.74-4.387-0.171c-1.284,0.55-2.287,1.679-2.82,3.176    c-0.152,0.436-0.29,0.881-0.423,1.329c-5.071,17.452-9.237,35.743-12.383,54.364c-2.295,13.579-5.058,27.316-7.732,40.602    l-0.401,2c-0.713,3.544-1.69,7.107-2.635,10.554c-0.268,0.975-0.536,1.947-0.798,2.925c-1.522-5.784-3.036-11.568-4.552-17.35    c-4.072-15.551-8.284-31.63-12.563-47.408c-1.594-5.881-3.58-11.748-5.502-17.422c-0.572-1.685-1.144-3.373-1.704-5.063    c-1.381-4.138-4.801-5.875-9.632-4.909c-2.856,0.574-3.911,1.947-3.646,4.743l0.091,0.975c0.276,2.953,0.561,6.002,1.26,8.933    c2.878,12.046,6.71,27.926,10.814,43.903c3.444,13.391,7.242,27.6,12.463,41.174c1.102,2.867,2.251,5.243,3.514,7.267    c1.947,3.13,4.989,3.801,7.961,3.801c0.53,0,1.061-0.022,1.583-0.055c3.472-0.216,5.784-2.052,6.873-5.455    c0.147-0.461,0.326-0.912,0.503-1.365c0.152-0.381,0.301-0.765,0.436-1.152c4.218-12.19,7.356-23.22,9.596-33.722    c5.392-25.255,10.527-50.01,14.085-75.169c0.467-3.279,0.826-6.624,1.177-9.858c0.135-1.243,0.271-2.489,0.409-3.732    C198.997,247.891,198.049,247.084,197.215,246.711z"/>
		<path d="M460.684,257.169c-4.417-6.77-10.276-12.361-15.941-17.77l-0.525-0.5c-5.008-4.784-9.477-9.135-13.502-13.966    c-3.204-3.842-6.221-9.933-2.406-17.137c2.978-5.621,7.361-10.08,13.024-13.259c1.378-0.773,2.718-0.967,3.864-0.555    c1.149,0.409,2.063,1.406,2.644,2.884c0.574,1.464,0.903,3.243,0.925,5.005c0.058,4.917-1.453,9.389-3.434,14.725    c-0.326,0.879-0.677,1.749-1.038,2.638l-0.771,1.92l0.657,0.262c1.881,0.743,3.472,0.37,4.726-1.13    c5.477-6.544,8.268-13.756,8.301-21.441c0.022-5.414-2.9-9.088-8.455-10.626c-3.613-0.997-7.372-1.155-11.187-0.467    c-9.908,1.781-18.316,7.347-24.993,16.543c-4.627,6.372-5.088,13.234-1.334,19.844c1.829,3.218,3.828,5.942,5.947,8.099    c3.795,3.87,7.798,7.654,11.67,11.311c1.674,1.58,3.351,3.163,5.014,4.757c6.154,5.894,10.24,10.938,13.248,16.358    c4.213,7.602,5.745,14.234,4.826,20.874c-2.047,14.781-10.057,26.341-23.805,34.357c-0.401,0.229-0.826,0.412-1.298,0.616    c-0.075,0.033-0.152,0.064-0.227,0.097c-0.047-0.083-0.097-0.166-0.144-0.246c-0.298-0.522-0.583-1.017-0.754-1.514    c-0.561-1.627-0.972-3.06-1.257-4.387c-0.87-4.099-1.669-8.466-1.017-12.861c0.138-0.923,0.141-1.655-0.285-2.227    c-0.453-0.608-1.26-0.795-2.061-0.909c-3.458-0.517-6.033,1.445-6.867,5.196c-1.268,5.668-0.494,11.242,0.428,15.944    c0.74,3.787,3.138,6.179,7.124,7.107c1.607,0.378,3.223,0.566,4.856,0.566c3.234,0,6.533-0.743,9.974-2.237    c12.256-5.328,21.443-13.941,27.305-25.595c3.884-7.729,5.326-15.507,4.287-23.125    C467.319,269.831,464.858,263.567,460.684,257.169z"/>
		<path d="M356.879,267.97c-11.753,13.107-16.609,26.885-14.847,42.113c0.82,7.085,2.933,12.748,6.464,17.314    c3.154,4.08,6.803,6.61,11.157,7.737c2.307,0.597,4.544,0.895,6.712,0.895c6.336,0,12.057-2.552,17.065-7.626    c2.762-2.798,5.898-6.168,8.232-9.933c4.803-7.756,9.444-15.786,13.93-23.554l3.53-6.099c0.561-0.961,0.914-2.019,1.26-3.044    l0.285-0.837c0.24-0.674,0.218-1.254-0.061-1.729c-0.298-0.505-0.862-0.828-1.674-0.961c-2.077-0.32-3.165,0.232-4.461,2.359    l-3.05,5.041c-2.486,4.121-5.06,8.384-7.665,12.527c-5.019,7.988-9.679,15.104-15.875,21.258    c-2.188,2.174-4.892,4.588-8.378,6.041c-2.379,0.989-3.157,0.815-4.903-1.113c-0.461-0.508-0.926-1.105-1.412-1.82    c-2.42-3.552-3.765-7.886-4.121-13.256c-0.696-10.632,1.572-20.99,6.74-30.783c5.823-11.027,13.916-19.686,24.059-25.739    c0.798-0.478,2.094-1.834,1.834-2.848c-0.26-1.025-1.469-2.182-2.536-2.425c-1.704-0.387-3.533-0.563-5.778-0.555    c-1.348,0.008-2.693,0.091-4.041,0.174c-1.815,0.113-3.701,0.24-5.511,0.138c-3.712-0.185-7.066-1.859-8.974-4.475    c-1.787-2.45-2.229-5.624-1.282-9.182c2.083-7.812,6.445-14.731,12.963-20.565c1.152-1.033,2.724-1.738,3.809-2.177    c0.525-0.221,1.406-0.185,1.964,0.077c2.157,1.008,3.384,2.693,3.649,5.005c0.044,0.403,0.069,0.812,0.091,1.221    c0.036,0.605,0.072,1.21,0.171,1.804c0.282,1.69,0.624,2.356,1.262,2.456c0.914,0.143,2.05-0.072,2.947-0.569    c0.751-0.417,1.237-1.218,1.668-2c1.262-2.287,1.563-4.784,0.845-7.035c-0.754-2.367-2.588-4.356-5.168-5.599    c-3.121-1.508-6.721-1.978-10.983-1.428c-13.425,1.707-25.576,12.543-28.893,25.763c-2.052,8.176,0.381,14.226,7.433,18.496    c2.652,1.605,5.685,2.624,7.734,3.251c1.776,0.544,3.594,0.845,5.516,1.166c0.268,0.044,0.539,0.088,0.812,0.135    C364.455,260.694,360.356,264.094,356.879,267.97z"/>
		<path d="M235.873,247.593c-1.064-0.845-2.599-1.091-4.571-0.74c-1.765,0.315-3.146,1.348-3.991,2.989    c-0.658,1.279-1.401,2.726-1.619,4.262c-0.199,1.387-0.406,2.773-0.616,4.163c-0.729,4.839-1.48,9.844-1.701,14.811    c-0.447,10.179-0.539,20.54-0.624,30.559l-0.044,4.77c-0.036,3.936,0.116,8.033,0.467,12.521    c0.577,7.397,1.276,15.248,2.268,25.451c0.32,3.307,0.732,6.657,1.127,9.897c0.177,1.428,0.351,2.856,0.519,4.284    c0.243,2.05,1.511,3.284,3.773,3.663c0.644,0.111,1.224,0.163,1.751,0.163c1.193,0,2.099-0.279,2.787-0.851    c0.972-0.81,1.445-2.13,1.483-4.157c0.232-12.554,0.448-25.106,0.663-37.658l-0.097-25.44c0.144-9.126,0.29-18.25,0.37-27.377    c0.042-4.776,0.044-11.077-0.296-17.455C237.428,249.684,236.873,248.385,235.873,247.593z"/>
		<path d="M473.771,31.253c-0.732-0.522-1.643-0.953-2.635-1.243c-2.108-0.621-4.4-0.558-7.204,0.199    c-13.891,3.77-27.741,8.309-41.163,13.491c-25.808,9.964-51.602,19.963-77.395,29.959l-35.097,13.599    c-1.055,0.412-2.116,0.815-3.215,1.235l-1.03,0.395l0.025-0.436c0.296-4.994,0.599-10.16-0.547-15.214    c-1.301-5.712-4.903-8.607-10.715-8.607c-0.111,0-0.221,0-0.332,0.003c-1.149,0.025-2.445,0.293-3.853,0.801    c-0.696,0.254-1.16,0.682-1.342,1.246c-0.13,0.395-0.166,1.036,0.384,1.851c0.251,0.367,0.398,1.003,0.351,1.511    c-0.828,9.182-1.638,17.64-2.472,25.835c-0.041,0.138-0.384,0.481-0.699,0.613c-1.442,0.61-2.903,1.179-4.362,1.749    c-1.055,0.414-2.113,0.826-3.163,1.254c-7.75,3.192-15.529,6.317-23.291,9.482c-6.763,2.758-13.52,5.525-20.29,8.267    c-1.858,0.753-3.775,1.544-5.166,2.989c-0.158,0.164-0.315,0.352-0.334,0.579c-0.051,0.612,1.247,1.278,1.662,1.553    c0.754,0.499,1.565,0.925,2.442,1.16c3.723,0.997,7.964-1.273,11.391-2.5c3.968-1.42,7.935-2.842,11.902-4.264    c3.768-1.351,7.54-2.692,11.303-4.054c0,0,16.485-5.911,16.485-5.911c0.177-0.064,0.356-0.122,0.547-0.18l-0.378,2.188    c-0.381,2.188-0.746,4.295-1.132,6.4c-2.356,12.82-4.486,25.379-4.652,38.108c-0.008,0.505-0.157,1.108-0.428,1.746l-2.235,5.237    c-2.511,5.892-5.105,11.98-7.767,17.919c-2.085,4.652-4.453,9.56-7.679,15.916c-0.483,0.95-1.215,1.829-1.992,2.76    c-0.133,0.157-0.268,0.32-0.403,0.483l-0.108-0.5c-0.119-0.525-0.232-1.019-0.224-1.48c0.033-1.561,0.039-3.127,0.042-4.693    c0.014-3.82,0.025-7.767,0.475-11.579c0.572-4.823,1.362-9.712,2.127-14.438c0.674-4.168,1.37-8.483,1.917-12.745    c0.522-4.08,0.624-8.259,0.727-12.306l0.072-2.729c0.058-2.03-0.886-3.726-2.593-4.652c-1.942-1.055-4.022-1.243-5.848-0.525    c-1.754,0.688-3.088,2.149-3.754,4.118c-0.97,2.876-2.411,5.464-3.561,7.397c-6.312,10.623-12.568,21.28-18.822,31.934    l-7.027,11.966c-0.072,0.119-0.144,0.235-0.218,0.356l-1.262-3.307c-1.307-3.42-2.569-6.723-3.804-10.035    c-2.616-7.027-4.168-12.966-4.892-18.692c-0.378-2.992,0.285-5.414,2.293-8.361c3.237-4.754,6.491-10.096,9.947-16.33    c0.944-1.704,1.155-3.16,0.627-4.329c-0.563-1.249-1.884-2.085-4.041-2.561c-4.74-1.047-9.027-0.475-12.742,1.682    c-7.795,4.53-12.577,11.339-14.215,20.236c-1.171,6.375-0.008,12.532,1.284,17.714c0.182,0.743,0.089,1.124-0.389,1.575    l-12.997,12.264c-0.025,0.025-0.052,0.05-0.083,0.072l-0.044-0.204c-0.191-0.892-0.37-1.74-0.583-2.58    c-1.478-5.848-4.796-9.604-9.864-11.168c-7.986-2.461-15.35-0.751-21.275,4.942c-4.909,4.712-6.254,10.126-3.997,16.09    c0.063,0.166,0.041,0.555-0.1,0.898c-3.185,7.732-4.215,15.988-3.058,24.534c0.754,5.583,2.701,9.999,5.947,13.507    c3.188,3.442,7.425,5.24,11.72,5.163c4.262-0.11,8.204-2.083,11.099-5.552c1.607-1.928,3.027-4.226,4.11-6.651    c4.583-10.273,6.828-21.076,6.674-32.111c-0.011-0.773,0.182-1.202,0.79-1.757c4.635-4.245,9.342-8.704,13.494-12.634    c0.066-0.061,0.124-0.127,0.182-0.196c0.771,1.74,1.448,3.414,2.105,5.044c0.58,1.439,1.146,2.845,1.757,4.232    c3.508,8.008,7.143,16.057,10.87,24.288c0.387,0.856,0.345,1.467-0.166,2.425c-2.387,4.486-4.246,8.212-5.848,11.723    c-1.204,2.641-1.591,5.345-1.149,8.038c0.301,1.84,1.329,3.105,3.05,3.757c1.113,0.423,2.268,0.635,3.491,0.635    c0.953,0,1.945-0.13,2.989-0.384c6.72-1.644,13.203-9.809,13.869-17.474c0.434-5.011-0.434-10.245-2.726-16.474    c-0.274-0.737-0.232-1.237,0.163-1.906c5.188-8.834,10.353-17.676,15.521-26.52l5.229-8.947c-1.74,9.383-3.185,18.59-2.149,27.943    c0.599,5.425,2.05,9.585,4.566,13.099c1.898,2.646,5.419,4.199,8.991,4.11c3.375-0.144,6.187-1.812,7.914-4.704    c1.171-1.958,2.384-4.082,3.318-6.334c2.826-6.834,5.593-13.687,8.364-20.543l2.881-7.127c0.022,0.185,0.047,0.367,0.069,0.55    c0.285,2.226,0.552,4.331,0.906,6.419c0.688,4.085,1.624,8.411,3.776,12.369c1.464,2.69,4.569,4.486,7.911,4.58    c3.282,0.028,6.096-1.4,7.759-4.094l0.718-1.146c0.881-1.398,1.796-2.842,2.486-4.384c2.994-6.649,5.933-13.322,8.872-19.996    l2.726-6.187c0.003,0.031,0.003,0.061,0.005,0.091c0.077,2.113,0.152,4.108,0.334,6.116c0.268,2.936,0.663,5.861,1.174,8.693    c0.721,3.961,1.845,8.53,4.738,12.397c2.05,2.737,5.701,4.458,9.123,4.257c2.218-0.124,5.331-1.08,7.594-4.95    c1.961-3.351,3.989-6.817,5.356-10.494c2.718-7.32,5.303-14.822,7.803-22.078c0.942-2.732,1.884-5.466,2.834-8.196    c-0.022,0.652-0.044,1.304-0.069,1.956c-0.116,3.207-0.235,6.525-0.017,9.784c0.309,4.685,1.025,9.303,2.121,13.734    c0.591,2.375,1.82,4.861,3.864,7.82c1.55,2.246,4.351,3.671,7.312,3.723c2.928,0.036,5.599-1.26,7.334-3.596l0.55-0.726    c0.743-0.975,1.511-1.983,2.039-3.124c0.403-0.878,0.821-1.751,1.237-2.63c1.434-3,2.914-6.102,3.828-9.336    c2.693-9.53,5.248-19.269,7.718-28.688c1.033-3.928,2.063-7.859,3.105-11.784l0.066-0.254c0.05-0.21,0.147-0.602,0.224-0.685    c0.937-0.682,1.914-1.307,2.881-1.92c-0.083,0.829-0.171,1.652-0.26,2.475c-0.298,2.765-0.605,5.624-0.74,8.439    c-0.494,10.306,0.74,19.049,3.77,26.73c1.854,4.704,4.616,8.187,8.441,10.648c6.403,4.121,14.543,3.334,19.8-1.922    c2.127-2.127,3.798-4.293,4.966-6.434c3.558-6.524,8.19-15.132,12.45-23.857c3.944-8.071,6.552-15.53,7.969-22.797    c0.202-1.033-0.02-1.87-0.622-2.356c-0.337-0.276-1.094-0.652-2.317-0.124c-0.771,0.326-1.359,1.254-1.58,1.975    c-4.168,13.604-10.541,27.092-20.662,43.732c-1.624,2.671-3.696,5.685-6.765,7.759l-0.619,0.423    c-0.898,0.619-1.577,1.133-1.947,1.036c-0.475-0.108-1.26-1.384-1.956-2.572c-1.641-2.804-2.108-5.911-2.547-9.684    c-1.403-12.065-0.483-24.567,2.815-38.221c0.227-0.942,0.45-1.133,1.414-1.196c7.237-0.475,11.894-4.469,13.469-11.552    c0.517-2.329,0.826-4.621,0.914-6.806c0.213-5.091-2.212-7.723-7.414-8.049c-5.917-0.376-11.154,1.646-16.049,6.165    c-4.74,4.373-8.036,10.016-10.079,17.248c-0.682,2.411-2.306,3.812-4.221,5.345c0.017-0.116,0.03-0.227,0.041-0.337    c0.072-0.774,0.155-1.544,0.235-2.315c0.218-2.039,0.442-4.146,0.464-6.234c0.022-2.03-1.199-3.737-3.348-4.69    c-3.878-1.71-8.519-0.685-11.535,2.566c-3.387,3.657-4.025,7.864-1.796,11.847c2.069,3.704,4.936,5.79,8.527,6.201    c-2.309,14.262-5.259,26.545-9.013,37.542c-1.721,5.046-3.793,10.334-7.273,14.825c-0.447,0.577-0.997,1.11-1.58,1.676    c-0.069,0.069-0.141,0.138-0.216,0.21c-0.086-0.171-0.147-0.312-0.163-0.423c-0.122-0.848-0.265-1.699-0.409-2.547    c-0.348-2.061-0.71-4.193-0.752-6.268c-0.202-9.949,0.884-20.001,1.934-29.719c0.403-3.746,0.807-7.491,1.144-11.239l0.072-0.81    c0.539-6.005,1.097-12.214,0.384-18.386c-0.367-3.187-1.251-7.848-4.632-11.513c-3.249-3.516-7.359-4.696-12.204-3.508    c-0.735,0.182-1.624,0.489-1.967,1.26c-0.345,0.779,0.03,1.671,0.442,2.439c2.105,3.914,3.146,7.867,3.102,11.748    c-0.055,4.859-0.312,9.803-0.563,14.588l-0.182,3.547c-0.058,1.204-0.154,2.588-0.55,3.815l-2.039,6.342    c-3.113,9.684-6.331,19.7-9.687,29.481c-2.486,7.235-5.287,12.773-8.817,17.438c-0.591,0.782-1.295,1.478-2.041,2.212    c-0.179,0.18-0.362,0.359-0.541,0.541c-0.036-0.445-0.074-0.889-0.116-1.337c-0.138-1.494-0.268-2.906-0.16-4.309    c0.817-10.834,1.751-21.841,2.657-32.484l0.191-2.248c0.158-1.876,0.348-3.748,0.539-5.618c0.359-3.558,0.732-7.24,0.876-10.878    c0.108-2.732-0.287-5.715-1.144-8.629c-0.939-3.168-3.892-4.861-8.099-4.668c-3.234,0.158-4.32,1.207-5.284,5.102    c-1.246,5.055-2.362,10.226-3.442,15.228l-0.959,4.425c-0.193,0.884-0.329,1.793-0.461,2.699    c-0.246,1.654-0.475,3.218-1.055,4.641c-2.376,5.82-4.994,11.662-7.524,17.311l-2.185,4.884    c-2.522,5.665-5.132,11.521-8.732,16.706c-0.497,0.716-1.066,1.373-1.668,2.069c-0.042,0.047-0.08,0.094-0.122,0.141    c-0.005-0.031-0.008-0.058-0.014-0.089c-0.116-0.737-0.235-1.472-0.276-2.215c-0.815-13.538-0.047-27.084,2.276-40.263    c1.37-7.767,2.859-15.648,4.301-23.272c0.972-5.141,1.942-10.278,2.887-15.424c0.166-0.917,0.428-1.232,1.265-1.53    c5.163-1.848,10.331-3.677,15.502-5.505c13.494-4.773,27.446-9.709,41.039-14.922c18.032-6.917,36.266-14.212,53.9-21.269    c7.552-3.022,15.107-6.044,22.664-9.047l0.981-0.389c10.193-4.047,20.388-8.096,30.567-12.168c1.163-0.467,2.276-1.053,3.315-1.74    c0.917-0.608,1.116-1.26,1.124-1.699C474.854,32.557,474.672,31.897,473.771,31.253z M211.537,223.434    c-0.53-3.715,1.149-6.878,2.911-10.204c0.072-0.133,0.141-0.265,0.21-0.398C215.073,216.387,214.059,219.821,211.537,223.434z     M159.864,192.674c0.044-0.083,0.235-0.232,0.249-0.254c6.663,0.409,12.276-2.243,16.933-4.994    c-0.072,0.671-0.138,1.34-0.205,2.005c-0.229,2.323-0.447,4.516-0.837,6.707c-1.519,8.599-3.875,15.322-7.411,21.162    c-1.597,2.641-3.257,4.436-5.226,5.654c-1.166,0.729-1.561,0.674-2.467-0.373c-2.721-3.135-3.643-7.019-4.14-10.049    C155.58,205.347,157.745,198.505,159.864,192.674z M175.473,182.37c-3.942,2.453-7.359,4.24-11.223,4.997    c-0.599,0.116-1.246,0.086-2.066,0.055c-0.094-0.006-0.19-0.008-0.29-0.014l3.842-7.95l0.323-0.638    c0.143-0.282,0.287-0.563,0.42-0.845c0.845-1.795,0.989-3.025,0.464-3.98c-0.522-0.945-1.622-1.486-3.563-1.746    c0.395-1.442,0.32-1.989-0.655-2.627c2.408-2.597,4.591-2.754,7.795-0.674c2.085,1.356,3.583,3.42,4.577,6.312    c0.287,0.831,0.486,1.685,0.699,2.585c0.196,0.832,0.392,1.66,0.655,2.467C176.758,181.257,176.548,181.699,175.473,182.37z     M386.655,106.386c-0.102-2.453,0.641-4.814,1.975-6.406c1.036,2.887,0.574,5.729,0.091,8.723    c-0.138,0.851-0.279,1.721-0.384,2.602C387.346,110.08,386.738,108.334,386.655,106.386z M418.363,102.889    c1.461-4.828,3.5-10.298,7.248-15.51c1.362,3.492,1.152,6.947-0.635,10.778C423.761,100.763,421.645,102.285,418.363,102.889z"/>
		<path d="M144.882,153.751c18.916-12.751,32.418-23.794,43.782-35.807c8.886-9.394,14.88-17.825,18.858-26.534    c2.815-6.157,3.925-11.493,3.489-16.794c-0.694-8.417-5.226-15.096-13.477-19.852c-9.096-5.24-19.477-7.118-32.727-5.953    c-12.386,1.105-24.697,5.058-37.638,12.079c-18.761,10.173-35.614,23.94-50.096,40.917    c-20.457,23.982-35.332,51.831-45.478,85.135c-0.392,1.29-0.55,2.641-0.699,3.945l-0.088,0.757    c-0.193,1.602,0.613,2.704,2.152,2.945c1.45,0.229,2.497-0.376,3.091-1.809c0.768-1.837,1.561-3.665,2.353-5.491    c1.041-2.403,2.083-4.803,3.069-7.231c8.331-20.499,15.833-35.644,24.33-49.11c17.838-28.285,39.102-49.102,65.009-63.64    c12.306-6.903,23.139-10.712,34.1-11.985c8.464-0.986,15.521,0.227,21.537,3.699c7.767,4.483,11.56,11.021,11.264,19.435    c-0.207,5.928-2.599,11.168-4.66,15.068c-4.491,8.494-10.762,16.458-20.33,25.824c-12.317,12.057-26.81,23.208-46.947,36.116    l0.787-6.48c0.87-7.176,1.738-14.35,2.668-21.515c0.307-2.362-0.32-4.105-1.917-5.328c-2.287-1.749-7.936-1.892-10.176,0.309    c-2.193,2.149-4.467,4.511-6.245,7.215c-1.542,2.351-2.511,5.149-3.298,7.585c-3.025,9.367-5.146,19.681-6.668,32.456    c-0.113,0.942-0.412,1.42-1.146,1.826c-1.329,0.735-2.632,1.55-3.892,2.339l-8.207,5.094c-7.781,4.826-15.563,9.651-23.313,14.524    c-2.097,1.318-4.013,2.922-5.45,4.171c-1.193,1.036-1.144,1.939-1.008,2.387c0.133,0.442,0.586,1.21,2.113,1.406    c1.961,0.249,3.605,0.122,4.881-0.384c0.98-0.387,1.795-1.061,2.585-1.713c0.55-0.45,1.066-0.878,1.624-1.204    c8.24-4.856,16.516-9.657,24.791-14.455c1.467-0.848,2.95-1.66,4.53-2.528l1.257-0.69l-0.566,5.803    c-0.389,4.033-0.787,8.063-1.185,12.093c-1.083,10.986-2.202,22.347-3.171,33.534c-0.345,3.978-0.138,7.961,0.152,12.383    c0.166,2.564,1.881,4.284,4.823,4.842c0.696,0.13,1.384,0.193,2.061,0.193c4.279,0,8.068-2.558,9.607-6.693    c0.199-0.536,0.373-1.077,0.528-1.627c2.953-10.538,5.386-22.25,7.436-35.804c1.359-8.975,2.497-18.134,3.602-26.99    c0.425-3.423,0.851-6.845,1.29-10.267c0.113-0.887,0.425-1.37,1.193-1.851l3.724-2.317    C134.368,160.554,139.73,157.223,144.882,153.751z"/>
		<path d="M262.153,127.523c1.193,0,2.351-0.483,3.273-1.373c0.978-0.942,1.553-2.227,1.575-3.53    c0.019-1.218-0.439-2.37-1.293-3.243c-0.892-0.914-2.11-1.425-3.428-1.434c-0.014,0-0.025,0-0.036,0    c-1.387,0-2.729,0.55-3.685,1.508c-0.881,0.884-1.359,2.025-1.348,3.212c0.022,2.45,2.381,4.809,4.851,4.859    C262.092,127.523,262.122,127.523,262.153,127.523z"/>
		<path d="M330.402,94.995c-1.312,0-2.599,0.536-3.539,1.469c-0.92,0.914-1.422,2.105-1.417,3.354    c0.003,1.213,0.494,2.367,1.387,3.254c0.926,0.92,2.201,1.445,3.508,1.445c0.006,0,0.011,0,0.017,0    c2.644-0.008,4.79-2.168,4.784-4.814c-0.005-2.619-2.072-4.688-4.704-4.707C330.427,94.995,330.413,94.995,330.402,94.995z"/>
	</g>
</g>















</svg>
