<svg id="Capa_1" enable-background="new 0 0 512 512" height="512" viewBox="0 0 512 512" width="512" xmlns="http://www.w3.org/2000/svg"><g><path d="m282.849 331.92h149.254c44.126 0 79.898-35.771 79.898-79.898 0-44.126-35.771-79.898-79.898-79.898-1.08 0-2.15.039-3.219.081 5.421-14.024 8.401-29.263 8.401-45.2 0-69.259-56.145-125.404-125.404-125.404-54.79 0-101.365 35.141-118.437 84.111-10.635-4.637-22.369-7.224-34.713-7.224-48.027 0-86.961 38.934-86.961 86.961 0 2.38.122 4.73.31 7.061-40.456 3.93-72.08 38.024-72.08 79.512 0 44.126 35.771 79.898 79.898 79.898h34.49z" fill="#6b8198"/><ellipse cx="166.449" cy="177.48" fill="#ffa0ab" rx="33.043" ry="26.314"/><ellipse cx="345.551" cy="177.48" fill="#ffa0ab" rx="33.043" ry="26.314"/><ellipse cx="256" cy="157.262" fill="#4a5561" rx="17.54" ry="19.627"/><g><path d="m204.36 153.245c-4.267 0-7.726-3.459-7.726-7.726 0-3.846-3.129-6.975-6.975-6.975s-6.975 3.129-6.975 6.975c0 4.267-3.459 7.726-7.726 7.726s-7.726-3.459-7.726-7.726c0-12.367 10.061-22.428 22.428-22.428s22.428 10.061 22.428 22.428c-.002 4.267-3.461 7.726-7.728 7.726z" fill="#4a5561"/></g><g><path d="m335.776 153.245c-4.267 0-7.726-3.459-7.726-7.726 0-3.846-3.129-6.975-6.975-6.975s-6.975 3.129-6.975 6.975c0 4.267-3.459 7.726-7.726 7.726s-7.726-3.459-7.726-7.726c0-12.367 10.061-22.428 22.428-22.428s22.428 10.061 22.428 22.428c-.001 4.267-3.461 7.726-7.728 7.726z" fill="#4a5561"/></g><path d="m352.702 374.551c-18.417-9.156-51.513 19.964-60.67 38.38-9.156 18.417-1.649 40.769 16.768 49.925s40.769 1.649 49.925-16.768c9.156-18.416 12.394-62.381-6.023-71.537z" fill="#cbe4ea"/><path d="m197.47 418.191c-18.417-9.156-51.513 19.964-60.67 38.38-9.156 18.417-1.649 40.769 16.768 49.925s40.769 1.649 49.925-16.768c9.156-18.416 12.394-62.381-6.023-71.537z" fill="#cbe4ea"/><path d="m109.904 199.688c0-45.384 15.121-87.232 40.588-120.8-44.161 4.152-78.722 41.314-78.722 86.561 0 2.38.122 4.73.31 7.061-40.456 3.93-72.08 38.025-72.08 79.512 0 44.126 35.771 79.898 79.898 79.898h34.49 45.459c-31.079-35.257-49.943-81.538-49.943-132.232z" fill="#516a80"/><path d="m300.507 257.398-70.362 53.442-38.654-54.015c-8.643-12.078-26.868-11.22-34.339 1.616l-76.639 131.684c-5.851 10.054 6.636 20.705 15.641 13.341l85.584-69.989 38.019 53.128c8.802 12.3 27.444 11.135 34.647-2.164l61.606-113.748c5.355-9.889-6.549-20.096-15.503-13.295z" fill="#f7ee80"/><path d="m180.115 262.811c0-4.612.291-9.156.855-13.615-8.644-2.681-18.727.498-23.818 9.245l-76.639 131.684c-5.851 10.054 6.636 20.705 15.641 13.341l85.584-69.989 38.019 53.127c8.802 12.3 27.444 11.135 34.647-2.164l9.113-16.826c-47.769-10.949-83.402-53.714-83.402-104.803z" fill="#f8d071"/><g fill="#aed1d9"><path d="m164.212 463.81c0-20.719 12.173-38.589 29.753-46.867-18.839-4.41-48.564 22.328-57.164 39.629-9.156 18.416-1.649 40.769 16.768 49.925 10.846 5.392 23.054 5 33.131.009-13.58-9.336-22.488-24.973-22.488-42.696z"/><path d="m319.444 420.169c0-20.719 12.173-38.589 29.753-46.867-18.839-4.41-48.563 22.328-57.164 39.629-9.156 18.417-1.649 40.769 16.768 49.925 10.846 5.392 23.054 5 33.131.009-13.579-9.335-22.488-24.972-22.488-42.696z"/></g></g></svg>